<?xml version="1.0" encoding="UTF-8"?>
<svg version="1.1" xmlns="http://www.w3.org/2000/svg" width="500" height="500">
<path d="M0 0 C6.70848451 2.86551704 13.42252483 5.71718218 20.15869141 8.51708984 C21.94896634 9.26174876 23.73637618 10.01328661 25.5234375 10.765625 C39.13659238 16.28262503 53.70535416 20.23447022 68.39453125 20.765625 C71.13671875 21.33984375 71.13671875 21.33984375 73.00390625 23.3828125 C73.37773437 24.02863281 73.7515625 24.67445312 74.13671875 25.33984375 C73.80671875 25.99984375 73.47671875 26.65984375 73.13671875 27.33984375 C49.87682867 34.750388 24.81623554 31.18461494 2.62158203 22.14526367 C-6.31394065 18.51939783 -15.4063682 15.35317401 -24.5402832 12.27026367 C-25.98812704 11.78089471 -27.43493754 11.28845614 -28.88061523 10.79272461 C-46.11007843 4.89775117 -66.65436746 0.01471813 -84.30859375 7.06640625 C-89.23881524 9.52397843 -94.15640524 12.03658937 -97.484375 16.52734375 C-97.93941406 17.12546875 -98.39445312 17.72359375 -98.86328125 18.33984375 C-99.52328125 18.33984375 -100.18328125 18.33984375 -100.86328125 18.33984375 C-101.13398437 19.21898437 -101.4046875 20.098125 -101.68359375 21.00390625 C-102.79349585 24.14250358 -104.13100208 26.80841665 -105.73828125 29.71484375 C-117.63535654 53.27685627 -115.67430534 81.56537505 -113.09375 106.98291016 C-112.82164615 109.76563318 -112.61897345 112.5506314 -112.42578125 115.33984375 C-110.9268762 133.53707694 -107.76862974 151.62098134 -103.55078125 169.37109375 C-102.73962256 172.87382445 -102.04636546 176.39102792 -101.390625 179.92578125 C-100.69469964 183.11157288 -99.78133435 186.21070501 -98.86328125 189.33984375 C-98.66162354 190.03158691 -98.45996582 190.72333008 -98.25219727 191.43603516 C-81.76470076 251.28901691 -81.76470076 251.28901691 -41.86328125 296.33984375 C-36.28716859 299.15428547 -31.20582111 301.21038844 -24.86328125 300.33984375 C-22.09886156 298.93225034 -22.09886156 298.93225034 -19.86328125 297.33984375 C-19.20328125 297.33984375 -18.54328125 297.33984375 -17.86328125 297.33984375 C-11.31551317 282.22960972 -9.81422815 265.58467254 -8.42578125 249.33984375 C-6.20589535 226.63469495 0.87261 205.27404968 18.13671875 189.33984375 C28.41602357 182.14057424 39.77868924 178.19221137 51.74609375 174.69140625 C70.67214959 169.71106223 70.67214959 169.71106223 85.13671875 157.33984375 C85.79671875 157.33984375 86.45671875 157.33984375 87.13671875 157.33984375 C88.64581897 149.72469187 89.73327938 143.74004154 87.13671875 136.33984375 C86.76546875 135.18484375 86.39421875 134.02984375 86.01171875 132.83984375 C85.57859375 131.60234375 85.57859375 131.60234375 85.13671875 130.33984375 C84.47671875 130.33984375 83.81671875 130.33984375 83.13671875 130.33984375 C82.17765625 129.22609375 82.17765625 129.22609375 81.19921875 128.08984375 C75.15688901 121.75978402 64.66260099 120.39790302 56.32470703 120.13452148 C54.45224164 120.09304726 52.57966819 120.05626527 50.70703125 120.0234375 C49.22153275 119.99226585 49.22153275 119.99226585 47.70602417 119.96046448 C44.55798957 119.89534055 41.40987508 119.83625746 38.26171875 119.77734375 C36.12108565 119.73412316 33.98046049 119.69050776 31.83984375 119.64648438 C26.60555199 119.53969747 21.37118163 119.43786363 16.13671875 119.33984375 C16.46069336 116.94360352 16.46069336 116.94360352 17.13671875 114.33984375 C19.953125 112.6796875 19.953125 112.6796875 23.69921875 111.27734375 C24.69719482 110.89630493 24.69719482 110.89630493 25.71533203 110.50756836 C30.57196744 108.71938675 35.4648802 107.51213233 40.51171875 106.40234375 C49.40097984 104.41368997 56.11641052 100.0794856 61.13671875 92.33984375 C62.67118792 88.63154326 62.82063043 84.27823172 62.13671875 80.33984375 C57.17916039 73.72976594 50.03425836 70.81347247 42.13671875 69.33984375 C39.25036574 69.05025126 36.37993386 68.97066716 33.48046875 68.92578125 C32.69273071 68.9064151 31.90499268 68.88704895 31.09338379 68.86709595 C28.60793463 68.80790829 26.1224376 68.76116149 23.63671875 68.71484375 C21.93878327 68.6766078 20.24086602 68.63755291 18.54296875 68.59765625 C14.40770235 68.50225795 10.27234537 68.41800633 6.13671875 68.33984375 C5.80671875 68.99984375 5.47671875 69.65984375 5.13671875 70.33984375 C3.07421875 70.96484375 3.07421875 70.96484375 1.13671875 71.33984375 C1.39066406 72.38140625 1.64460937 73.42296875 1.90625 74.49609375 C9.2489354 104.94801088 9.2489354 104.94801088 9.33984375 119.125 C9.35002533 120.22094734 9.35002533 120.22094734 9.3604126 121.33903503 C9.37731171 123.69351502 9.38360571 126.04780711 9.38671875 128.40234375 C9.38905518 129.20176392 9.3913916 130.00118408 9.39379883 130.8248291 C9.40819254 143.87010963 8.51437926 156.48915479 6.13671875 169.33984375 C7.03132812 169.14648438 7.9259375 168.953125 8.84765625 168.75390625 C11.35872999 168.21314197 13.87048625 167.67554008 16.3828125 167.140625 C18.60579403 166.66641978 20.8276544 166.18681773 23.046875 165.6953125 C27.85935542 164.66141022 32.21362759 164.12579631 37.13671875 164.33984375 C38.19921875 166.71484375 38.19921875 166.71484375 39.13671875 169.33984375 C37.83995151 171.93337823 36.91670371 171.97272312 34.2265625 172.93359375 C33.00138916 173.38738403 33.00138916 173.38738403 31.75146484 173.8503418 C30.42622803 174.34014526 30.42622803 174.34014526 29.07421875 174.83984375 C17.39610388 179.35273886 7.51405093 185.35827908 -2.5390625 192.76171875 C-3.33231934 193.34477783 -4.12557617 193.92783691 -4.94287109 194.52856445 C-6.46763096 195.65942539 -7.98305555 196.80303175 -9.48681641 197.96166992 C-14.36716479 201.62445727 -18.9646 203.77256129 -24.86328125 205.33984375 C-26.57558889 200.20292082 -25.30661674 195.33087229 -23.48046875 190.3828125 C-21.46253016 184.46757804 -20.37349605 178.4124089 -19.23828125 172.27734375 C-19.02171875 171.14490234 -18.80515625 170.01246094 -18.58203125 168.84570312 C-12.09826338 134.48573572 -10.53093316 96.56212037 -22.4453125 63.1171875 C-22.86328125 61.33984375 -22.86328125 61.33984375 -21.86328125 58.33984375 C-5.77480496 54.38828817 10.09184033 53.89520864 26.57421875 53.83984375 C28.12363159 53.8248584 28.12363159 53.8248584 29.7043457 53.80957031 C45.56997318 53.68392188 62.64422481 53.79637243 76.13671875 63.33984375 C76.87277344 63.84386719 77.60882813 64.34789062 78.3671875 64.8671875 C78.95113281 65.35316406 79.53507813 65.83914062 80.13671875 66.33984375 C80.13671875 66.99984375 80.13671875 67.65984375 80.13671875 68.33984375 C80.79671875 68.33984375 81.45671875 68.33984375 82.13671875 68.33984375 C86.63969388 73.38863404 87.40123311 78.67030309 87.13671875 85.33984375 C86.18968608 89.46620038 84.48960257 92.81051802 82.13671875 96.33984375 C81.47671875 96.33984375 80.81671875 96.33984375 80.13671875 96.33984375 C80.13671875 96.99984375 80.13671875 97.65984375 80.13671875 98.33984375 C79.47671875 98.33984375 78.81671875 98.33984375 78.13671875 98.33984375 C77.73453125 99.23703125 77.73453125 99.23703125 77.32421875 100.15234375 C76.14363114 102.32711039 74.86855363 103.60800887 73.13671875 105.33984375 C72.80671875 106.32984375 72.47671875 107.31984375 72.13671875 108.33984375 C73.33296875 108.25734375 74.52921875 108.17484375 75.76171875 108.08984375 C83.67050153 108.06469659 92.20649543 110.54105467 99.13671875 114.33984375 C99.13671875 114.99984375 99.13671875 115.65984375 99.13671875 116.33984375 C99.73484375 116.46359375 100.33296875 116.58734375 100.94921875 116.71484375 C103.13671875 117.33984375 103.13671875 117.33984375 106.13671875 119.33984375 C106.13671875 119.99984375 106.13671875 120.65984375 106.13671875 121.33984375 C106.79671875 121.33984375 107.45671875 121.33984375 108.13671875 121.33984375 C115.48531081 132.35149546 116.67927495 144.42035087 114.13671875 157.33984375 C112.49496574 163.15857382 108.5874809 167.36251349 104.63671875 171.77734375 C104.16186035 172.31029053 103.68700195 172.8432373 103.19775391 173.39233398 C100.70696845 176.0627642 98.878502 177.99567029 95.13671875 178.33984375 C95.13671875 178.99984375 95.13671875 179.65984375 95.13671875 180.33984375 C84.71249735 185.79755129 75.17103639 190.62753177 63.25390625 191.06640625 C62.20589844 191.20175781 62.20589844 191.20175781 61.13671875 191.33984375 C60.80671875 191.99984375 60.47671875 192.65984375 60.13671875 193.33984375 C57.63503025 194.04865549 55.17190743 194.65566525 52.63671875 195.21484375 C43.1773078 197.44925971 35.98273191 200.57542592 28.13671875 206.33984375 C27.47671875 206.33984375 26.81671875 206.33984375 26.13671875 206.33984375 C25.85570312 206.90703125 25.5746875 207.47421875 25.28515625 208.05859375 C24.53621868 209.54627926 23.77124832 211.02603313 22.98828125 212.49609375 C19.00678308 220.10405203 16.15706366 227.99494085 14.13671875 236.33984375 C13.82734375 237.43296875 13.51796875 238.52609375 13.19921875 239.65234375 C11.05919858 248.26033531 10.22081851 257.19144384 9.69921875 266.02734375 C8.45281991 284.68107559 6.28587524 306.43464622 -7.80859375 320.24609375 C-14.83038894 325.8635299 -22.86919225 328.54281332 -31.86328125 328.33984375 C-43.18447616 326.78022034 -52.98055713 322.48464359 -61.86328125 315.33984375 C-61.86328125 314.67984375 -61.86328125 314.01984375 -61.86328125 313.33984375 C-62.44851562 313.07816406 -63.03375 312.81648438 -63.63671875 312.546875 C-84.74615098 301.10334069 -97.3604007 267.83942298 -106.28125 246.98828125 C-107.57625323 244.00177998 -108.94522661 241.08083444 -110.36328125 238.15234375 C-137.24632889 179.02720956 -154.47969893 88.63021197 -131.96728516 25.84082031 C-128.49106807 16.9211834 -124.45311662 7.42836936 -117.86328125 0.33984375 C-117.20328125 0.33984375 -116.54328125 0.33984375 -115.86328125 0.33984375 C-115.53328125 -0.65015625 -115.20328125 -1.64015625 -114.86328125 -2.66015625 C-114.20328125 -2.66015625 -113.54328125 -2.66015625 -112.86328125 -2.66015625 C-112.86328125 -3.32015625 -112.86328125 -3.98015625 -112.86328125 -4.66015625 C-78.24226088 -33.9038692 -36.01805983 -15.38759716 0 0 Z " fill="#0F3E64" transform="translate(212.86328125,86.66015625)"/>
<path d="M0 0 C1.05896484 -0.01611328 2.11792969 -0.03222656 3.20898438 -0.04882812 C19.16618518 -0.05866004 31.2696401 6.16465418 42.4375 17.3125 C56.38342125 31.582745 59.4706911 52.08106865 60.125 71.1875 C60.16334961 72.27047363 60.20169922 73.35344727 60.24121094 74.46923828 C60.69416987 89.82275214 59.69865237 104.92453573 58.0625 120.1875 C57.94874023 121.25597168 57.83498047 122.32444336 57.71777344 123.42529297 C56.71791411 132.14006688 55.15519494 140.71693501 53.4375 149.3125 C53.18919434 150.55644531 52.94088867 151.80039063 52.68505859 153.08203125 C48.58943731 173.16037116 43.42795108 192.71879099 37.4375 212.3125 C37.08993652 213.4670166 36.74237305 214.6215332 36.38427734 215.81103516 C34.59108385 221.7301907 32.71950013 227.56400538 30.4375 233.3125 C30.14004883 234.07385254 29.84259766 234.83520508 29.53613281 235.61962891 C22.02172265 254.77795573 13.60540149 273.40098834 3.4375 291.3125 C3.07398438 291.9533252 2.71046875 292.59415039 2.3359375 293.25439453 C-2.82752533 302.31335693 -8.12577484 311.08358863 -14.5625 319.3125 C-15.64144531 320.69695312 -15.64144531 320.69695312 -16.7421875 322.109375 C-25.09636464 332.57377682 -36.26730995 346.19670337 -50.5625 348.3125 C-60.07066816 349.04712668 -68.61812787 349.36105605 -76.5625 343.3125 C-78.85315543 341.16039228 -80.90306847 338.99052569 -82.5625 336.3125 C-82.5625 335.6525 -82.5625 334.9925 -82.5625 334.3125 C-83.2225 334.3125 -83.8825 334.3125 -84.5625 334.3125 C-85.18854585 332.60454966 -85.81328415 330.89612002 -86.4375 329.1875 C-86.78554688 328.23617188 -87.13359375 327.28484375 -87.4921875 326.3046875 C-87.84539062 325.31726563 -88.19859375 324.32984375 -88.5625 323.3125 C-88.91441406 322.35601562 -89.26632812 321.39953125 -89.62890625 320.4140625 C-93.18103023 308.61328242 -93.74485454 294.3677269 -93.5 282.125 C-93.42962608 276.16960678 -94.11011146 270.32627851 -94.78979492 264.41870117 C-95.30619207 259.91385631 -95.65309027 255.47182123 -95.8125 250.9375 C-96.27369835 243.81659753 -98.44326614 237.15565316 -100.56738281 230.38134766 C-100.83647461 229.5104248 -101.10556641 228.63950195 -101.3828125 227.7421875 C-101.63305176 226.96085449 -101.88329102 226.17952148 -102.14111328 225.37451172 C-102.5625 223.3125 -102.5625 223.3125 -101.5625 220.3125 C-95.04757316 221.56537055 -89.38614592 224.85014869 -85.5625 230.3125 C-83.60402734 234.5531598 -82.04517288 238.88596937 -80.5625 243.3125 C-80.2339502 244.17657471 -79.90540039 245.04064941 -79.56689453 245.9309082 C-78.31261667 250.15380629 -77.85893538 254.26503603 -77.4140625 258.63671875 C-77.21106512 260.49024836 -77.00793557 262.34376349 -76.8046875 264.19726562 C-76.4968393 267.07690881 -76.192017 269.95683214 -75.890625 272.8371582 C-74.83343721 282.85522964 -73.65860133 292.81763507 -71.7109375 302.70703125 C-71.57233307 303.46006027 -71.43372864 304.21308929 -71.29092407 304.98893738 C-69.90425186 311.56866881 -67.24277136 317.38969664 -61.6875 321.375 C-55.41993296 323.25527011 -50.23342825 321.14796412 -44.5625 318.3125 C-42.87772656 317.00212066 -41.20601457 315.67426922 -39.5625 314.3125 C-38.9025 314.3125 -38.2425 314.3125 -37.5625 314.3125 C-37.5625 313.6525 -37.5625 312.9925 -37.5625 312.3125 C-36.9025 312.3125 -36.2425 312.3125 -35.5625 312.3125 C-35.315 311.75046875 -35.0675 311.1884375 -34.8125 310.609375 C-33.3502615 307.92251175 -31.57030925 305.87148064 -29.5625 303.5625 C-15.07972064 286.00761592 -4.4171459 264.56470244 3.4375 243.3125 C4.16147658 241.51872984 4.89014143 239.72683964 5.625 237.9375 C7.41892846 233.45267885 8.95480014 228.90805039 10.4375 224.3125 C10.89424893 222.93697288 11.35262548 221.56198531 11.8125 220.1875 C12.18955078 219.04667969 12.18955078 219.04667969 12.57421875 217.8828125 C13.18648056 216.05987914 13.81585994 214.24265466 14.45703125 212.4296875 C30.7581642 165.43444803 53.62824449 92.41926107 31.8125 44.95703125 C27.03597239 35.77035741 21.32054296 28.167454 11.625 23.875 C-1.69574885 19.77963581 -16.46805317 22.36815828 -29.80984497 25.13375854 C-33.91846009 25.9826294 -38.03951294 26.76665981 -42.16015625 27.5546875 C-42.96982346 27.71055832 -43.77949066 27.86642914 -44.61369324 28.02702332 C-72.04271824 33.24605715 -98.1413196 34.44061915 -124.5625 24.3125 C-124.5625 22.9925 -124.5625 21.6725 -124.5625 20.3125 C-122.9693396 20.24518677 -122.9693396 20.24518677 -121.34399414 20.17651367 C-117.3157679 20.00327733 -113.28834641 19.81504575 -109.26098633 19.62280273 C-107.53427757 19.54236053 -105.80738651 19.46572032 -104.08032227 19.39331055 C-88.64246063 18.74163953 -73.89275762 16.84160404 -59 12.5625 C-58.09725342 12.31081055 -57.19450684 12.05912109 -56.2644043 11.79980469 C-51.2339204 10.38825306 -46.22069738 8.92074295 -41.2109375 7.4375 C-40.15334229 7.12522461 -39.09574707 6.81294922 -38.00610352 6.49121094 C-35.98387598 5.89140169 -33.96338386 5.28569563 -31.94506836 4.67285156 C-21.22942114 1.47635709 -11.19040726 -0.03417962 0 0 Z " fill="#0F3E64" transform="translate(373.5625,69.6875)"/>
<path d="M0 0 C1.0625 2.375 1.0625 2.375 2 5 C0.68219827 7.63560347 -0.39263741 7.71788566 -3.12109375 8.734375 C-3.97026367 9.05857422 -4.81943359 9.38277344 -5.69433594 9.71679688 C-6.59958008 10.05775391 -7.50482422 10.39871094 -8.4375 10.75 C-15.76808024 13.58244681 -22.52029546 16.49831053 -29 21 C-30.08025206 17.31443413 -29.63022914 14.78137481 -29 11 C-29.3577614 8.72349255 -29.3577614 8.72349255 -30 7 C-28.68 6.34 -27.36 5.68 -26 5 C-26 4.67 -26 4.34 -26 4 C-23.00199182 3.32303041 -20.00233047 2.65731496 -17 2 C-16.14921875 1.80921875 -15.2984375 1.6184375 -14.421875 1.421875 C-9.4984401 0.36469573 -5.03464219 -0.21889749 0 0 Z " fill="#113E63" transform="translate(250,251)"/>
<path d="M0 0 C0.66 0.99 1.32 1.98 2 3 C1.22076172 3.36351562 1.22076172 3.36351562 0.42578125 3.734375 C-3.81271608 5.77136078 -7.43232946 7.87828828 -11 11 C-11 10.34 -11 9.68 -11 9 C-11.99 9 -12.98 9 -14 9 C-14 9.66 -14 10.32 -14 11 C-13.34 11.33 -12.68 11.66 -12 12 C-12.66 13.32 -13.32 14.64 -14 16 C-6.74 16 0.52 16 8 16 C8 16.66 8 17.32 8 18 C2.83931509 19.05476516 -2.09712007 19.12969365 -7.3359375 19.09765625 C-8.21528961 19.0962413 -9.09464172 19.09482635 -10.00064087 19.09336853 C-12.79212942 19.08779877 -15.58353594 19.0752519 -18.375 19.0625 C-20.27473842 19.05748109 -22.1744781 19.05291887 -24.07421875 19.04882812 C-28.71617714 19.03783925 -33.35807469 19.02059557 -38 19 C-37.67602539 16.60375977 -37.67602539 16.60375977 -37 14 C-34.18359375 12.33984375 -34.18359375 12.33984375 -30.4375 10.9375 C-29.44278687 10.55972412 -29.44278687 10.55972412 -28.42797852 10.17431641 C-22.26475758 7.91463718 -15.97326601 6.41126472 -9.55859375 5.0546875 C-5.62273977 3.88818852 -3.26471178 2.42463956 0 0 Z " fill="#194667" transform="translate(267,187)"/>
<path d="M0 0 C1.89727597 0.2371595 3.79449665 0.47477141 5.69140625 0.71484375 C7.21896777 0.90352732 8.74765138 1.08335736 10.27734375 1.25390625 C15.89375 1.89375 15.89375 1.89375 17 3 C20.03809091 3.20405088 23.07417722 3.3194592 26.1171875 3.42578125 C29 4 29 4 30.8828125 6.04296875 C31.25148438 6.68878906 31.62015625 7.33460937 32 8 C31.67 8.66 31.34 9.32 31 10 C23.77901054 12.13592361 16.52502491 13.45150149 9 13 C11.5162178 10.39391727 14.05134359 8.10618315 17 6 C15.10820797 5.3185177 15.10820797 5.3185177 13 5 C12.34 5.66 11.68 6.32 11 7 C11 6.01 11 5.02 11 4 C7.37 3.34 3.74 2.68 0 2 C0 1.34 0 0.68 0 0 Z " fill="#21496A" transform="translate(255,104)"/>
<path d="M0 0 C0.99 0.66 1.98 1.32 3 2 C2.01 2.495 2.01 2.495 1 3 C1 3.66 1 4.32 1 5 C1.66 5.66 2.32 6.32 3 7 C2.01 7 1.02 7 0 7 C0 7.66 0 8.32 0 9 C-5.61 9 -11.22 9 -17 9 C-16.67 7.35 -16.34 5.7 -16 4 C-13.41796875 2.3828125 -13.41796875 2.3828125 -10.1875 1.125 C-9.12917969 0.69445312 -8.07085937 0.26390625 -6.98046875 -0.1796875 C-3.98519039 -1.00407604 -2.80663293 -1.18109933 0 0 Z " fill="#1F4869" transform="translate(246,197)"/>
<path d="M0 0 C1.0625 2.375 1.0625 2.375 2 5 C0.67369165 7.6526167 -0.50777171 7.84893445 -3.25 8.875 C-5.73046875 9.66015625 -5.73046875 9.66015625 -8 10 C-10.5625 8.3125 -10.5625 8.3125 -13 6 C-15.6498931 5.07851462 -18.24102409 4.56114764 -21 4 C-14.55014562 0.47111416 -7.25553656 -0.31545811 0 0 Z " fill="#2A5775" transform="translate(250,251)"/>
<path d="M0 0 C4.60520231 0.68225219 8.84615256 2.65384465 11.875 6.1875 C12.24625 6.785625 12.6175 7.38375 13 8 C12.38125 8.103125 11.7625 8.20625 11.125 8.3125 C8.63473516 8.87525373 8.63473516 8.87525373 7 12 C6.01 12 5.02 12 4 12 C4 13.65 4 15.3 4 17 C2.17568628 13.70986216 1.22218077 10.45566056 0.3125 6.8125 C0.04050781 5.74644531 -0.23148437 4.68039062 -0.51171875 3.58203125 C-0.67285156 2.72996094 -0.83398438 1.87789063 -1 1 C-0.67 0.67 -0.34 0.34 0 0 Z " fill="#1D4C74" transform="translate(272,290)"/>
<path d="M0 0 C7.92 0 15.84 0 24 0 C20.2632157 2.49118953 18.25548181 2.2065226 13.8125 2.125 C12.54019531 2.10695313 11.26789063 2.08890625 9.95703125 2.0703125 C8.49330078 2.03550781 8.49330078 2.03550781 7 2 C7.33 2.66 7.66 3.32 8 4 C10.3140622 4.73075648 12.64828869 5.40138258 15 6 C15.33 5.34 15.66 4.68 16 4 C17.65 4 19.3 4 21 4 C20.67 5.65 20.34 7.3 20 9 C12.91296261 8.45484328 6.67203894 6.39081395 0 4 C0 2.68 0 1.36 0 0 Z " fill="#244C6C" transform="translate(249,90)"/>
<path d="M0 0 C0.02483911 4.99877567 0.04292563 9.99751489 0.05493164 14.99633789 C0.05994027 16.69458645 0.06674906 18.39283074 0.07543945 20.09106445 C0.08765773 22.54118915 0.09326314 24.9912565 0.09765625 27.44140625 C0.10281754 28.19273331 0.10797882 28.94406036 0.11329651 29.71815491 C0.11377171 34.24941493 -0.25523564 38.52883681 -1 43 C-1.33 43 -1.66 43 -2 43 C-2.81940729 36.35694801 -3.05627823 29.80803933 -3 23.125 C-2.93760098 15.69015701 -3.26736204 8.40487653 -4 1 C-2 0 -2 0 0 0 Z " fill="#3E5C81" transform="translate(222,198)"/>
<path d="M0 0 C10.56 0 21.12 0 32 0 C32 0.33 32 0.66 32 1 C24.08 1 16.16 1 8 1 C7.67 1.66 7.34 2.32 7 3 C4.9375 3.625 4.9375 3.625 3 4 C3.33 6.31 3.66 8.62 4 11 C3.34 11 2.68 11 2 11 C1.34 11.66 0.68 12.32 0 13 C-3 8.25 -3 8.25 -3 6 C-2.34 5.67 -1.68 5.34 -1 5 C-0.67 3.35 -0.34 1.7 0 0 Z " fill="#1C4464" transform="translate(211,154)"/>
<path d="M0 0 C0.99 0.33 1.98 0.66 3 1 C2.96519531 1.68707031 2.93039062 2.37414062 2.89453125 3.08203125 C2.86746094 3.98308594 2.84039062 4.88414062 2.8125 5.8125 C2.77769531 6.70582031 2.74289062 7.59914063 2.70703125 8.51953125 C3.05383799 11.4558283 3.83399627 12.10904436 6 14 C5.75191399 16.39816472 4.85845217 18.37156305 4 20.625 C2.6895454 25.04778427 2.34440047 29.4140359 2 34 C1.67 34 1.34 34 1 34 C-0.05253638 22.64764338 -0.10313358 11.39053108 0 0 Z " fill="#4B7085" transform="translate(280,337)"/>
<path d="M0 0 C0 2 0 4 0 6 C-0.99 6.495 -0.99 6.495 -2 7 C-2.66 7.825 -3.32 8.65 -4 9.5 C-6 12 -6 12 -8 13 C-8 13.99 -8 14.98 -8 16 C-16.57142857 17.42857143 -16.57142857 17.42857143 -20 15 C-18.948125 14.5875 -17.89625 14.175 -16.8125 13.75 C-13.40364404 12.30779171 -10.85352072 10.36434574 -8 8 C-7.34 8 -6.68 8 -6 8 C-6 7.34 -6 6.68 -6 6 C-5.34 6 -4.68 6 -4 6 C-3.566875 5.071875 -3.566875 5.071875 -3.125 4.125 C-2 2 -2 2 0 0 Z " fill="#244A67" transform="translate(342,376)"/>
<path d="M0 0 C0.99 0 1.98 0 3 0 C3.125 2.375 3.125 2.375 3 5 C2.34 5.66 1.68 6.32 1 7 C0.835 8.155 0.67 9.31 0.5 10.5 C0 14 0 14 -2 16 C-2.46162427 18.43252661 -2.46162427 18.43252661 -2.625 21.125 C-2.73714844 22.49011719 -2.73714844 22.49011719 -2.8515625 23.8828125 C-2.90054688 24.58148438 -2.94953125 25.28015625 -3 26 C-3.66 26 -4.32 26 -5 26 C-5.33 26.66 -5.66 27.32 -6 28 C-5.76622908 18.16036927 -2.95306149 9.2950607 0 0 Z " fill="#395874" transform="translate(81,113)"/>
<path d="M0 0 C1.67542976 0.28604898 3.34385343 0.61781233 5 1 C3.7934375 2.175625 3.7934375 2.175625 2.5625 3.375 C0.01309583 5.71982856 0.01309583 5.71982856 -1 8 C-4.47325181 9.1577506 -7.36067448 9.06866652 -11 9 C-9.79618552 6.50638429 -8.54571278 4.31856917 -7 2 C-6.34 2.33 -5.68 2.66 -5 3 C-4.67 2.34 -4.34 1.68 -4 1 C-3.01 1 -2.02 1 -1 1 C-0.67 0.67 -0.34 0.34 0 0 Z " fill="#0A385D" transform="translate(268,108)"/>
<path d="M0 0 C2.45862401 -0.05383848 4.9160755 -0.09359038 7.375 -0.125 C8.42300781 -0.15013672 8.42300781 -0.15013672 9.4921875 -0.17578125 C11.32897486 -0.19344267 13.16601963 -0.10303261 15 0 C15.66 0.66 16.32 1.32 17 2 C10.97658059 4.68902652 7.474138 5.27170568 1 4 C0.67 2.68 0.34 1.36 0 0 Z " fill="#08385C" transform="translate(255,91)"/>
<path d="M0 0 C0 0.66 0 1.32 0 2 C-5.93627021 3.30433619 -11.83332252 3.11086318 -17.875 3.0625 C-19.47988281 3.05573242 -19.47988281 3.05573242 -21.1171875 3.04882812 C-23.74484986 3.03709749 -26.37239538 3.02068228 -29 3 C-29 2.34 -29 1.68 -29 1 C-25.8543649 0.82945079 -22.70846763 0.66429189 -19.5625 0.5 C-18.24475586 0.42845703 -18.24475586 0.42845703 -16.90039062 0.35546875 C-11.25801331 0.06398062 -5.64989797 -0.04598086 0 0 Z " fill="#547085" transform="translate(275,203)"/>
<path d="M0 0 C0.66 1.32 1.32 2.64 2 4 C1.67 4.66 1.34 5.32 1 6 C-1.06640625 6.4140625 -1.06640625 6.4140625 -3.5625 6.625 C-4.38878906 6.69976562 -5.21507812 6.77453125 -6.06640625 6.8515625 C-7.02353516 6.92503906 -7.02353516 6.92503906 -8 7 C-8.66 5.02 -9.32 3.04 -10 1 C-6.7 0.67 -3.4 0.34 0 0 Z " fill="#09365D" transform="translate(250,252)"/>
<path d="M0 0 C2.625 0.375 2.625 0.375 5 1 C4.88590407 2.45922693 4.75834456 3.91740598 4.625 5.375 C4.55539062 6.18710938 4.48578125 6.99921875 4.4140625 7.8359375 C4 10 4 10 2 12 C-1.89708405 7.73756432 -1.89708405 7.73756432 -2.375 4.3125 C-2 2 -2 2 0 0 Z " fill="#1C4667" transform="translate(420,224)"/>
<path d="M0 0 C0.99 0.66 1.98 1.32 3 2 C1.35 3.32 -0.3 4.64 -2 6 C-1.67 6.66 -1.34 7.32 -1 8 C-2.65 8 -4.3 8 -6 8 C-6.59732819 5.23735711 -7 2.83967231 -7 0 C-3.8195064 -1.06016453 -3.04021693 -1.04507457 0 0 Z " fill="#184369" transform="translate(246,197)"/>
<path d="M0 0 C0.66 0.33 1.32 0.66 2 1 C0.515 3.475 0.515 3.475 -1 6 C-0.443125 5.97679687 0.11375 5.95359375 0.6875 5.9296875 C6.17609015 5.79988976 10.7293351 6.46671566 16 8 C15.01 8.66 14.02 9.32 13 10 C12.67 9.67 12.34 9.34 12 9 C9.81707226 8.76518307 7.62796826 8.58636677 5.4375 8.4375 C4.23996094 8.35371094 3.04242188 8.26992187 1.80859375 8.18359375 C0.88175781 8.12300781 -0.04507812 8.06242188 -1 8 C-1.33 8.99 -1.66 9.98 -2 11 C-2 10.34 -2 9.68 -2 9 C-2.66 9 -3.32 9 -4 9 C-2.25 2.25 -2.25 2.25 0 0 Z " fill="#4F6F86" transform="translate(286,189)"/>
<path d="M0 0 C0.99 0.33 1.98 0.66 3 1 C1.68 3.64 0.36 6.28 -1 9 C-1.66 9 -2.32 9 -3 9 C-3.33 10.32 -3.66 11.64 -4 13 C-4.66 13 -5.32 13 -6 13 C-6.33 14.65 -6.66 16.3 -7 18 C-7.66 18 -8.32 18 -9 18 C-7.65072455 13.46152802 -5.80840652 9.68067754 -3.375 5.625 C-2.74335938 4.56539063 -2.11171875 3.50578125 -1.4609375 2.4140625 C-0.73777344 1.21910156 -0.73777344 1.21910156 0 0 Z " fill="#254569" transform="translate(366,339)"/>
<path d="M0 0 C0.33 0 0.66 0 1 0 C1.54555287 6.54663442 0.8277608 11.52378747 -3 17 C-3.66 17.33 -4.32 17.66 -5 18 C-5.20140476 14.37471432 -4.85776765 12.13498292 -3 9 C-3.66 8.67 -4.32 8.34 -5 8 C-4.0409375 7.13375 -4.0409375 7.13375 -3.0625 6.25 C-1.01776132 4.01937599 -0.41794801 2.92563609 0 0 Z " fill="#345671" transform="translate(326,235)"/>
<path d="M0 0 C0.66 0.99 1.32 1.98 2 3 C1.48050781 3.24234375 0.96101563 3.4846875 0.42578125 3.734375 C-3.81271608 5.77136078 -7.43232946 7.87828828 -11 11 C-11.99 9.68 -12.98 8.36 -14 7 C-13.40832031 6.74605469 -12.81664062 6.49210938 -12.20703125 6.23046875 C-7.96359706 4.38218665 -3.90106471 2.51681595 0 0 Z " fill="#2C506D" transform="translate(267,187)"/>
<path d="M0 0 C2.625 -0.1875 2.625 -0.1875 5 0 C5 0.99 5 1.98 5 3 C4.01 3.33 3.02 3.66 2 4 C1.67 4.66 1.34 5.32 1 6 C-0.32 6 -1.64 6 -3 6 C-3 7.98 -3 9.96 -3 12 C-3.66 12 -4.32 12 -5 12 C-5 9.36 -5 6.72 -5 4 C-4.01 3.67 -3.02 3.34 -2 3 C-1.34 2.01 -0.68 1.02 0 0 Z " fill="#0C3758" transform="translate(281,298)"/>
<path d="M0 0 C3 1 3 1 4.1875 3.0625 C4.455625 3.701875 4.72375 4.34125 5 5 C4.071875 5.86625 4.071875 5.86625 3.125 6.75 C1.18652947 8.80249821 0.09985751 10.43366582 -1 13 C-2.51403812 8.15507803 -1.36602172 4.7408989 0 0 Z " fill="#285370" transform="translate(201,365)"/>
<path d="M0 0 C0.33 0.99 0.66 1.98 1 3 C1.99 3 2.98 3 4 3 C3.67 4.32 3.34 5.64 3 7 C3.66 7 4.32 7 5 7 C5 8.65 5 10.3 5 12 C5.66 12 6.32 12 7 12 C7 12.99 7 13.98 7 15 C7.66 15 8.32 15 9 15 C9 16.98 9 18.96 9 21 C6.33383292 17.73334484 4.58570215 14.31785747 2.8125 10.5 C2.28269531 9.3759375 1.75289063 8.251875 1.20703125 7.09375 C0 4 0 4 0 0 Z M4 2 C6 3 6 3 6 3 Z " fill="#3D6180" transform="translate(104,325)"/>
<path d="M0 0 C0.66 0 1.32 0 2 0 C2.33 0.99 2.66 1.98 3 3 C1.5625 5.1875 1.5625 5.1875 0 7 C1.32 7.33 2.64 7.66 4 8 C3.67 8.66 3.34 9.32 3 10 C0.4375 10.625 0.4375 10.625 -2 11 C-2 12.98 -2 14.96 -2 17 C-2.66 17 -3.32 17 -4 17 C-3.71561048 15.10306139 -3.42216208 13.20747973 -3.125 11.3125 C-2.96257812 10.25675781 -2.80015625 9.20101563 -2.6328125 8.11328125 C-2.04106931 5.20205086 -1.1968194 2.71044393 0 0 Z " fill="#3E5D81" transform="translate(210,309)"/>
<path d="M0 0 C4.05281712 1.22527029 7.44360764 2.69880494 11 5 C8.50907189 6.24546405 7.58919267 5.7767578 5 5 C4.67 5.66 4.34 6.32 4 7 C1.125 7.125 1.125 7.125 -2 7 C-2.66 6.34 -3.32 5.68 -4 5 C-2.35 4.01 -0.7 3.02 1 2 C0.67 1.34 0.34 0.68 0 0 Z " fill="#365F80" transform="translate(278,145)"/>
<path d="M0 0 C0.33 0 0.66 0 1 0 C1.99 9.24 2.98 18.48 4 28 C3.34 28 2.68 28 2 28 C1.77213542 25.94921875 1.54427083 23.8984375 1.31640625 21.84765625 C1.18113386 19.98859771 1.18113386 19.98859771 0 19 C-0.08651611 17.58429877 -0.10704904 16.164405 -0.09765625 14.74609375 C-0.09443359 13.89208984 -0.09121094 13.03808594 -0.08789062 12.15820312 C-0.07951172 11.26037109 -0.07113281 10.36253906 -0.0625 9.4375 C-0.05798828 8.53580078 -0.05347656 7.63410156 -0.04882812 6.70507812 C-0.03700225 4.46998686 -0.0205222 2.23502563 0 0 Z " fill="#375F75" transform="translate(296,335)"/>
<path d="M0 0 C1.25117622 3.75352866 0.65790336 6.1183702 0 10 C-0.185625 11.134375 -0.37125 12.26875 -0.5625 13.4375 C-0.7790625 14.7059375 -0.7790625 14.7059375 -1 16 C0.65 15.67 2.3 15.34 4 15 C1.64046906 17.35953094 0.22104383 17.49141413 -3 18 C-5.13235727 11.6029282 -2.77705992 5.79560332 0 0 Z " fill="#354F6B" transform="translate(191,274)"/>
<path d="M0 0 C3 1 3 1 4 3 C7.02934491 3.65772428 7.02934491 3.65772428 10 4 C10 3.34 10 2.68 10 2 C10.99 2.33 11.98 2.66 13 3 C12.67 3.66 12.34 4.32 12 5 C10.02 5 8.04 5 6 5 C5.67 5.66 5.34 6.32 5 7 C2.4375 7.625 2.4375 7.625 0 8 C0.33 7.01 0.66 6.02 1 5 C-0.32 4.34 -1.64 3.68 -3 3 C-2.67 2.34 -2.34 1.68 -2 1 C-1.34 1.33 -0.68 1.66 0 2 C0 1.34 0 0.68 0 0 Z " fill="#2E5370" transform="translate(268,273)"/>
<path d="M0 0 C9.57 0 19.14 0 29 0 C29 0.33 29 0.66 29 1 C21.08 1 13.16 1 5 1 C4.67 1.66 4.34 2.32 4 3 C1.4375 3.625 1.4375 3.625 -1 4 C-0.67 2.68 -0.34 1.36 0 0 Z " fill="#5E768B" transform="translate(214,154)"/>
<path d="M0 0 C0.66 0 1.32 0 2 0 C1.67 4.29 1.34 8.58 1 13 C-0.32 13.33 -1.64 13.66 -3 14 C-2.979375 13.2575 -2.95875 12.515 -2.9375 11.75 C-2.99328688 9.29537721 -3.3069904 7.33890739 -4 5 C-3.01 5.495 -3.01 5.495 -2 6 C-1.67 5.01 -1.34 4.02 -1 3 C-0.67 2.01 -0.34 1.02 0 0 Z " fill="#073960" transform="translate(293,321)"/>
<path d="M0 0 C5.61 2.31 11.22 4.62 17 7 C17 7.33 17 7.66 17 8 C14.03 7.67 11.06 7.34 8 7 C8 6.34 8 5.68 8 5 C4.37 4.34 0.74 3.68 -3 3 C-2.01 2.67 -1.02 2.34 0 2 C0 1.34 0 0.68 0 0 Z " fill="#3D5977" transform="translate(199,81)"/>
<path d="M0 0 C0.99 0.66 1.98 1.32 3 2 C1.35 4.31 -0.3 6.62 -2 9 C-2.99 8.67 -3.98 8.34 -5 8 C-5 6.02 -5 4.04 -5 2 C-2.6875 0.875 -2.6875 0.875 0 0 Z " fill="#345A77" transform="translate(368,370)"/>
<path d="M0 0 C0.33 0 0.66 0 1 0 C1.5326514 6.258654 -0.18150494 10.45108785 -3 16 C-4.0546875 14.125 -4.0546875 14.125 -5 12 C-4.125 10 -4.125 10 -3 8 C-3 6.68 -3 5.36 -3 4 C-2.34 4 -1.68 4 -1 4 C-0.67 2.68 -0.34 1.36 0 0 Z " fill="#31536D" transform="translate(396,314)"/>
<path d="M0 0 C1.51171875 1.38671875 1.51171875 1.38671875 3 3 C2.75191399 5.39816472 1.85845217 7.37156305 1 9.625 C-0.3104546 14.04778427 -0.65559953 18.4140359 -1 23 C-1.33 23 -1.66 23 -2 23 C-2.27990605 15.10042938 -1.51537186 7.7527507 0 0 Z " fill="#416888" transform="translate(283,348)"/>
<path d="M0 0 C0.66 0 1.32 0 2 0 C3.32 4.29 4.64 8.58 6 13 C4 13 4 13 1.3125 11 C-1 8 -1 8 -1.1015625 5.88671875 C-0.84140908 3.90744337 -0.42955875 1.94953587 0 0 Z " fill="#26506C" transform="translate(114,284)"/>
<path d="M0 0 C-0.66 1.65 -1.32 3.3 -2 5 C-2.66 5 -3.32 5 -4 5 C-4 5.66 -4 6.32 -4 7 C-4.66 7 -5.32 7 -6 7 C-6.66 8.32 -7.32 9.64 -8 11 C-8.66 10.01 -9.32 9.02 -10 8 C-9.01 8 -8.02 8 -7 8 C-7.33 6.35 -7.66 4.7 -8 3 C-7.34 3.33 -6.68 3.66 -6 4 C-5.67 3.01 -5.34 2.02 -5 1 C-3 0 -3 0 0 0 Z " fill="#3A657D" transform="translate(297,178)"/>
<path d="M0 0 C2 3 2 3 2 6 C-6.57142857 7.42857143 -6.57142857 7.42857143 -10 5 C-8.27473958 4.28385417 -6.54947917 3.56770833 -4.82421875 2.8515625 C-2.73466068 1.93193308 -2.73466068 1.93193308 0 0 Z " fill="#33587A" transform="translate(332,386)"/>
<path d="M0 0 C0.33 0 0.66 0 1 0 C1.25 7.625 1.25 7.625 -1 11 C-1.39013716 12.9896995 -1.73202649 14.99019869 -2 17 C-2.33 17 -2.66 17 -3 17 C-3.2031621 11.28888766 -3.33039979 6.34621127 -1 1 C-0.67 0.67 -0.34 0.34 0 0 Z " fill="#09365D" transform="translate(285,354)"/>
<path d="M0 0 C0.99 0 1.98 0 3 0 C2.835 0.55816406 2.67 1.11632812 2.5 1.69140625 C1.95788742 4.19444168 1.93695688 6.38031355 2 8.9375 C2.04139334 12.44041119 1.90917538 15.59059233 1 19 C0.67 19 0.34 19 0 19 C-0.19476139 16.39619004 -0.38108614 13.79224467 -0.5625 11.1875 C-0.61857422 10.44951172 -0.67464844 9.71152344 -0.73242188 8.95117188 C-0.95769724 5.63211484 -1.06255812 3.18767436 0 0 Z " fill="#416581" transform="translate(76,204)"/>
<path d="M0 0 C0.99 0.33 1.98 0.66 3 1 C2.34 5.62 1.68 10.24 1 15 C0.34 15 -0.32 15 -1 15 C-2.13129791 9.97200929 -1.85122426 6.02222315 -1 1 C-0.67 0.67 -0.34 0.34 0 0 Z " fill="#42667E" transform="translate(98,132)"/>
<path d="M0 0 C8 1 8 1 16 2 C16 2.66 16 3.32 16 4 C15.01 4.33 14.02 4.66 13 5 C12.34 5.66 11.68 6.32 11 7 C11 6.01 11 5.02 11 4 C7.37 3.34 3.74 2.68 0 2 C0 1.34 0 0.68 0 0 Z " fill="#405E7A" transform="translate(255,104)"/>
<path d="M0 0 C1.89037472 2.83556208 2.65374862 4.83191263 3.5625 8.0625 C4.55972045 11.61733007 4.55972045 11.61733007 6 15 C5.67 15.66 5.34 16.32 5 17 C4.01 16.67 3.02 16.34 2 16 C1.34 10.72 0.68 5.44 0 0 Z " fill="#305975" transform="translate(289,304)"/>
<path d="M0 0 C1.67542976 0.28604898 3.34385343 0.61781233 5 1 C3.5977422 3.8045156 1.93929378 4.0442118 -0.9375 5.1875 C-1.83339844 5.55230469 -2.72929687 5.91710937 -3.65234375 6.29296875 C-6 7 -6 7 -8 6 C-8 5.34 -8 4.68 -8 4 C-6.865625 3.525625 -5.73125 3.05125 -4.5625 2.5625 C-1.24259834 1.36377917 -1.24259834 1.36377917 0 0 Z " fill="#3F657F" transform="translate(297,268)"/>
<path d="M0 0 C1.32 0 2.64 0 4 0 C4 0.99 4 1.98 4 3 C4.99 3 5.98 3 7 3 C7.33 4.32 7.66 5.64 8 7 C8.99 7 9.98 7 11 7 C10.67 8.32 10.34 9.64 10 11 C6.40365256 7.50640535 3.16548033 3.88901869 0 0 Z " fill="#4F7187" transform="translate(393,97)"/>
<path d="M0 0 C7.92 0 15.84 0 24 0 C20.84685215 2.10209857 20.13896919 2.2434761 16.55078125 2.1953125 C15.27944336 2.18564453 15.27944336 2.18564453 13.98242188 2.17578125 C13.10134766 2.15902344 12.22027344 2.14226562 11.3125 2.125 C10.41982422 2.11597656 9.52714844 2.10695313 8.60742188 2.09765625 C6.40467686 2.07409748 4.20247412 2.04120329 2 2 C2 2.66 2 3.32 2 4 C1.01 3.67 0.02 3.34 -1 3 C-0.67 2.01 -0.34 1.02 0 0 Z " fill="#7088A1" transform="translate(249,90)"/>
<path d="M0 0 C0.33 0 0.66 0 1 0 C0.40984815 5.50808397 -0.56663769 10.64878069 -2 16 C-4.41215354 12.38176969 -4.0629945 11.56289778 -3.25 7.4375 C-3.06953125 6.46683594 -2.8890625 5.49617187 -2.703125 4.49609375 C-2 2 -2 2 0 0 Z " fill="#385673" transform="translate(421,238)"/>
<path d="M0 0 C-0.33 0.99 -0.66 1.98 -1 3 C-1.99 2.67 -2.98 2.34 -4 2 C-6.22574335 1.77548542 -8.45581519 1.59217122 -10.6875 1.4375 C-11.86699219 1.35371094 -13.04648438 1.26992187 -14.26171875 1.18359375 C-15.16535156 1.12300781 -16.06898438 1.06242187 -17 1 C-17 0.67 -17 0.34 -17 0 C-11.49017726 -1.37745568 -5.45954909 -1.8198497 0 0 Z " fill="#284A66" transform="translate(160,68)"/>
<path d="M0 0 C1.65 0 3.3 0 5 0 C3.37660195 1.70884005 1.70680947 3.37446717 0 5 C-0.66 5 -1.32 5 -2 5 C-2 5.66 -2 6.32 -2 7 C-2.99 7.33 -3.98 7.66 -5 8 C-5 6.68 -5 5.36 -5 4 C-4.360625 3.71125 -3.72125 3.4225 -3.0625 3.125 C-0.84793921 2.17176549 -0.84793921 2.17176549 0 0 Z " fill="#385271" transform="translate(310,260)"/>
<path d="M0 0 C0 0.66 0 1.32 0 2 C-3.96 1.67 -7.92 1.34 -12 1 C-12 0.34 -12 -0.32 -12 -1 C-7.21643835 -2.19589041 -4.58153882 -1.52717961 0 0 Z " fill="#3E5F79" transform="translate(170,90)"/>
<path d="M0 0 C3.16595501 0.56534911 6.0410416 1.76710066 9 3 C9 3.33 9 3.66 9 4 C7.88625 3.9071875 7.88625 3.9071875 6.75 3.8125 C3.54616994 4.03094296 2.35968744 4.90250005 0 7 C-0.38133299 5.0085944 -0.71325582 3.00720923 -1 1 C-0.67 0.67 -0.34 0.34 0 0 Z " fill="#3A617B" transform="translate(272,290)"/>
<path d="M0 0 C-3.11910856 1.79275866 -5.67682428 2.34290718 -9.25 2.625 C-10.14203125 2.69976562 -11.0340625 2.77453125 -11.953125 2.8515625 C-12.62859375 2.90054688 -13.3040625 2.94953125 -14 3 C-13.67 2.01 -13.34 1.02 -13 0 C-8.34462607 -0.83796731 -4.62921525 -1.0161692 0 0 Z " fill="#41687F" transform="translate(353,92)"/>
<path d="M0 0 C3.69459731 0.19970796 4.78742451 0.76444338 7.3125 3.5625 C8.1478125 4.7690625 8.1478125 4.7690625 9 6 C7.51793505 5.745504 6.03931385 5.47088238 4.5625 5.1875 C3.73878906 5.03667969 2.91507813 4.88585937 2.06640625 4.73046875 C1.38449219 4.48941406 0.70257813 4.24835938 0 4 C-0.33 3.01 -0.66 2.02 -1 1 C-0.67 0.67 -0.34 0.34 0 0 Z " fill="#365872" transform="translate(251,91)"/>
<path d="M0 0 C0.33 0 0.66 0 1 0 C1.77313045 5.9114744 2.14819277 11.1314592 1 17 C0.67 17 0.34 17 0 17 C-1.33257403 5.47835991 -1.33257403 5.47835991 0 0 Z " fill="#476586" transform="translate(220,224)"/>
<path d="M0 0 C0.66 0.33 1.32 0.66 2 1 C2.5625 2.875 2.5625 2.875 3 5 C3.33 5.99 3.66 6.98 4 8 C3.01 8.495 3.01 8.495 2 9 C1.34227572 12.02934491 1.34227572 12.02934491 1 15 C0.67 15 0.34 15 0 15 C-0.19517554 13.06325815 -0.38087873 11.12555991 -0.5625 9.1875 C-0.66691406 8.10855469 -0.77132813 7.02960938 -0.87890625 5.91796875 C-1 3 -1 3 0 0 Z " fill="#325B77" transform="translate(412,126)"/>
<path d="M0 0 C2.62374802 5.24749603 3.09534716 8.08847633 3 14 C2.34 14 1.68 14 1 14 C1 11.69 1 9.38 1 7 C0.34 7 -0.32 7 -1 7 C-0.67 4.69 -0.34 2.38 0 0 Z " fill="#41657E" transform="translate(427,106)"/>
<path d="M0 0 C2.97 0.495 2.97 0.495 6 1 C6 1.66 6 2.32 6 3 C5.34 3 4.68 3 4 3 C3.67 3.66 3.34 4.32 3 5 C0.4375 5.625 0.4375 5.625 -2 6 C-1.34 4.02 -0.68 2.04 0 0 Z " fill="#274D75" transform="translate(369,332)"/>
<path d="M0 0 C0.99 0.99 1.98 1.98 3 3 C2.67 3.66 2.34 4.32 2 5 C2.66 5 3.32 5 4 5 C4.33 4.34 4.66 3.68 5 3 C5 3.99 5 4.98 5 6 C4.01 6 3.02 6 2 6 C2 7.65 2 9.3 2 11 C0.11772118 7.73738338 -0.58481145 4.73669693 -1 1 C-0.67 0.67 -0.34 0.34 0 0 Z " fill="#406280" transform="translate(274,296)"/>
<path d="M0 0 C1.04391334 3.13174001 1.0069626 4.82496113 0.6875 8.0625 C0.60886719 8.94035156 0.53023438 9.81820313 0.44921875 10.72265625 C0 13 0 13 -2 15 C-3.1171875 13.359375 -3.1171875 13.359375 -4 11 C-3.3203125 8.203125 -3.3203125 8.203125 -2.125 5.25 C-1.73570312 4.26515625 -1.34640625 3.2803125 -0.9453125 2.265625 C-0.63335937 1.51796875 -0.32140625 0.7703125 0 0 Z " fill="#516781" transform="translate(394,264)"/>
<path d="M0 0 C-1.7015625 0.61875 -1.7015625 0.61875 -3.4375 1.25 C-7.09543384 2.56685398 -7.09543384 2.56685398 -7.9375 5.1875 C-7.958125 5.785625 -7.97875 6.38375 -8 7 C-9.65 5.68 -11.3 4.36 -13 3 C-11.40084119 2.30093058 -9.79544955 1.61610532 -8.1875 0.9375 C-7.29417969 0.55464844 -6.40085938 0.17179687 -5.48046875 -0.22265625 C-3 -1 -3 -1 0 0 Z " fill="#395C7A" transform="translate(258,265)"/>
<path d="M0 0 C0.89203125 0.10183594 1.7840625 0.20367187 2.703125 0.30859375 C3.37859375 0.39238281 4.0540625 0.47617188 4.75 0.5625 C4.75 0.8925 4.75 1.2225 4.75 1.5625 C2.79310341 1.78392255 0.83438048 1.9892568 -1.125 2.1875 C-2.76082031 2.36152344 -2.76082031 2.36152344 -4.4296875 2.5390625 C-5.82574219 2.55066406 -5.82574219 2.55066406 -7.25 2.5625 C-7.91 1.9025 -8.57 1.2425 -9.25 0.5625 C-5.98086376 -0.46865279 -3.38958652 -0.4013984 0 0 Z " fill="#496780" transform="translate(309.25,98.4375)"/>
<path d="M0 0 C-7.0547046 4.07877462 -7.0547046 4.07877462 -11 3.75 C-11.66 3.5025 -12.32 3.255 -13 3 C-12 1 -12 1 -10.0390625 0.33203125 C-9.24242188 0.16058594 -8.44578125 -0.01085937 -7.625 -0.1875 C-6.43777344 -0.45626953 -6.43777344 -0.45626953 -5.2265625 -0.73046875 C-3 -1 -3 -1 0 0 Z " fill="#3A5871" transform="translate(134,91)"/>
<path d="M0 0 C0.66 0 1.32 0 2 0 C2.66 3.63 3.32 7.26 4 11 C2.35 10.67 0.7 10.34 -1 10 C-0.835 9.0925 -0.67 8.185 -0.5 7.25 C0.10137146 3.88912497 0.10137146 3.88912497 0 0 Z " fill="#365C77" transform="translate(100,220)"/>
<path d="M0 0 C0.33 0 0.66 0 1 0 C2.22517308 5.66642551 2.09228867 11.23708518 2 17 C1.67 17 1.34 17 1 17 C0.63601378 14.91835982 0.28416713 12.83459438 -0.0625 10.75 C-0.25972656 9.58984375 -0.45695312 8.4296875 -0.66015625 7.234375 C-0.9606216 4.37477376 -0.9439206 2.66674071 0 0 Z " fill="#0C3251" transform="translate(97,190)"/>
<path d="M0 0 C0 0.99 0 1.98 0 3 C-3.63 2.01 -7.26 1.02 -11 0 C-11 -0.33 -11 -0.66 -11 -1 C-6.65609517 -2.08597621 -3.99390508 -1.99695254 0 0 Z " fill="#43657E" transform="translate(390,92)"/>
<path d="M0 0 C2.31 0 4.62 0 7 0 C7.66 1.32 8.32 2.64 9 4 C8.01 4.66 7.02 5.32 6 6 C4 4 2 2 0 0 Z " fill="#2F587A" transform="translate(350,72)"/>
<path d="M0 0 C0.66 0 1.32 0 2 0 C2 2.31 2 4.62 2 7 C1.34 7 0.68 7 0 7 C-0.33 8.98 -0.66 10.96 -1 13 C-2.07310858 9.72814447 -1.89263102 7.57052408 -1.0625 4.25 C-0.86785156 3.45078125 -0.67320312 2.6515625 -0.47265625 1.828125 C-0.31667969 1.22484375 -0.16070312 0.6215625 0 0 Z " fill="#365470" transform="translate(194,258)"/>
<path d="M0 0 C1.98 0.99 1.98 0.99 4 2 C4 4.97 4 7.94 4 11 C3.34 11 2.68 11 2 11 C1.34 7.37 0.68 3.74 0 0 Z " fill="#254A67" transform="translate(323,217)"/>
<path d="M0 0 C0.99 0 1.98 0 3 0 C3.25 2.3125 3.25 2.3125 3 5 C1 6.8125 1 6.8125 -1 8 C-1.125 2.25 -1.125 2.25 0 0 Z " fill="#29516D" transform="translate(81,113)"/>
<path d="M0 0 C0 0.66 0 1.32 0 2 C0.99 2.33 1.98 2.66 3 3 C0 5 0 5 -2.6875 4.625 C-3.450625 4.41875 -4.21375 4.2125 -5 4 C-4.67 3.01 -4.34 2.02 -4 1 C-2 0 -2 0 0 0 Z " fill="#14405E" transform="translate(282,110)"/>
<path d="M0 0 C3.8063457 0.67170806 7.35206816 1.72746564 11 3 C9 5 9 5 6.375 5.125 C5.59125 5.08375 4.8075 5.0425 4 5 C3.71125 4.360625 3.4225 3.72125 3.125 3.0625 C2.17176549 0.84793921 2.17176549 0.84793921 0 0 Z " fill="#3B5D78" transform="translate(235,97)"/>
<path d="M0 0 C2.66666667 1.33333333 5.33333333 2.66666667 8 4 C8 4.66 8 5.32 8 6 C4.1936543 5.32829194 0.64793184 4.27253436 -3 3 C-2.01 2.67 -1.02 2.34 0 2 C0 1.34 0 0.68 0 0 Z " fill="#3D5D79" transform="translate(202,100)"/>
<path d="M0 0 C-0.66 1.65 -1.32 3.3 -2 5 C-2.33 4.34 -2.66 3.68 -3 3 C-5.64 3.33 -8.28 3.66 -11 4 C-10 2 -10 2 -7.1875 0.875 C-4 0 -4 0 0 0 Z " fill="#0D375B" transform="translate(326,392)"/>
<path d="M0 0 C0.99 0.66 1.98 1.32 3 2 C1.35 4.97 -0.3 7.94 -2 11 C-2.66 10.67 -3.32 10.34 -4 10 C-3.67 8.68 -3.34 7.36 -3 6 C-2.34 6 -1.68 6 -1 6 C-0.67 4.02 -0.34 2.04 0 0 Z " fill="#34536D" transform="translate(374,359)"/>
<path d="M0 0 C0.99 0.66 1.98 1.32 3 2 C1.68 4.31 0.36 6.62 -1 9 C-1.33 9 -1.66 9 -2 9 C-2.25 3.375 -2.25 3.375 0 0 Z " fill="#2B4F6A" transform="translate(381,346)"/>
<path d="M0 0 C0.66 0.99 1.32 1.98 2 3 C0.8125 4.5 0.8125 4.5 -1 6 C-3.6875 6.1875 -3.6875 6.1875 -6 6 C-4 4 -2 2 0 0 Z " fill="#2F506F" transform="translate(234,274)"/>
<path d="M0 0 C0 0.66 0 1.32 0 2 C-1.43725871 2.16873478 -2.87481838 2.33490737 -4.3125 2.5 C-5.11300781 2.5928125 -5.91351563 2.685625 -6.73828125 2.78125 C-9 3 -9 3 -12 3 C-11 1 -11 1 -9.375 0.375 C-6.2339425 -0.12095645 -3.17398169 -0.06103811 0 0 Z " fill="#697F92" transform="translate(250,251)"/>
<path d="M0 0 C1.65 0.33 3.3 0.66 5 1 C4.01 1.33 3.02 1.66 2 2 C2 2.66 2 3.32 2 4 C-2.29 4 -6.58 4 -11 4 C-11 3.67 -11 3.34 -11 3 C-10.28972656 2.95101562 -9.57945312 2.90203125 -8.84765625 2.8515625 C-7.46900391 2.73941406 -7.46900391 2.73941406 -6.0625 2.625 C-5.14597656 2.55539063 -4.22945312 2.48578125 -3.28515625 2.4140625 C-2.15400391 2.20910156 -2.15400391 2.20910156 -1 2 C-0.67 1.34 -0.34 0.68 0 0 Z " fill="#274D6D" transform="translate(244,202)"/>
<path d="M0 0 C0.66 0.33 1.32 0.66 2 1 C0.515 3.475 0.515 3.475 -1 6 C-0.34 6.33 0.32 6.66 1 7 C0.34 7 -0.32 7 -1 7 C-1.33 8.32 -1.66 9.64 -2 11 C-2 10.34 -2 9.68 -2 9 C-2.66 9 -3.32 9 -4 9 C-2.25 2.25 -2.25 2.25 0 0 Z " fill="#386787" transform="translate(286,189)"/>
<path d="M0 0 C3.63 0.33 7.26 0.66 11 1 C11 1.66 11 2.32 11 3 C7.7 3 4.4 3 1 3 C0.67 2.01 0.34 1.02 0 0 Z " fill="#0F3354" transform="translate(285,98)"/>
<path d="M0 0 C0.33 0.66 0.66 1.32 1 2 C1.99 2 2.98 2 4 2 C4 2.66 4 3.32 4 4 C0.535 5.485 0.535 5.485 -3 7 C-2.38722388 4.03824877 -1.74627478 2.61941217 0 0 Z " fill="#2F5571" transform="translate(331,409)"/>
<path d="M0 0 C1.65 0 3.3 0 5 0 C4.25 4.75 4.25 4.75 2 7 C2 6.01 2 5.02 2 4 C1.34 3.67 0.68 3.34 0 3 C0 2.01 0 1.02 0 0 Z " fill="#295779" transform="translate(209,391)"/>
<path d="M0 0 C0.99 0.33 1.98 0.66 3 1 C4.66621616 1.03874921 6.33394172 1.0450286 8 1 C6.37633534 4.24732932 3.24612161 4.70155136 0 6 C0 4.02 0 2.04 0 0 Z " fill="#2B5574" transform="translate(220,266)"/>
<path d="M0 0 C3.3125 -0.25 3.3125 -0.25 7 0 C8.9375 2 8.9375 2 10 4 C9.67 4.66 9.34 5.32 9 6 C7.68 5.34 6.36 4.68 5 4 C5 3.34 5 2.68 5 2 C3.35 1.67 1.7 1.34 0 1 C0 0.67 0 0.34 0 0 Z " fill="#476C90" transform="translate(277,108)"/>
<path d="M0 0 C-0.33 1.32 -0.66 2.64 -1 4 C-3.31 3.67 -5.62 3.34 -8 3 C-8 2.34 -8 1.68 -8 1 C-3.375 -1.125 -3.375 -1.125 0 0 Z " fill="#0A3559" transform="translate(178,387)"/>
<path d="M0 0 C0.66 0.99 1.32 1.98 2 3 C1.01 3.66 0.02 4.32 -1 5 C-1.33 5.66 -1.66 6.32 -2 7 C-3.65 6.67 -5.3 6.34 -7 6 C-2.25 2 -2.25 2 0 2 C0 1.34 0 0.68 0 0 Z " fill="#58718D" transform="translate(195,382)"/>
<path d="M0 0 C0.96661363 3.12180401 0.98988909 5.52083795 0.5625 8.75 C0.40974609 9.94882813 0.40974609 9.94882813 0.25390625 11.171875 C0.12822266 12.07679688 0.12822266 12.07679688 0 13 C-0.33 13 -0.66 13 -1 13 C-1.33 9.04 -1.66 5.08 -2 1 C-1.34 0.67 -0.68 0.34 0 0 Z " fill="#5F7990" transform="translate(430,190)"/>
<path d="M0 0 C0.66 0.33 1.32 0.66 2 1 C1.67 1.66 1.34 2.32 1 3 C1.66 3.33 2.32 3.66 3 4 C2.34 5.32 1.68 6.64 1 8 C0.01 7.67 -0.98 7.34 -2 7 C-1.34 4.69 -0.68 2.38 0 0 Z " fill="#0A365B" transform="translate(131,368)"/>
<path d="M0 0 C0.33 0.66 0.66 1.32 1 2 C3.02463255 2.65213292 3.02463255 2.65213292 5 3 C1.25 6 1.25 6 -1 6 C-1.042721 4.33388095 -1.04063832 2.66617115 -1 1 C-0.67 0.67 -0.34 0.34 0 0 Z " fill="#2F5C7B" transform="translate(196,283)"/>
<path d="M0 0 C1.32 0.33 2.64 0.66 4 1 C3.34 3.31 2.68 5.62 2 8 C1.34 7.67 0.68 7.34 0 7 C0 4.69 0 2.38 0 0 Z " fill="#0B3457" transform="translate(394,263)"/>
<path d="M0 0 C0.66 0.99 1.32 1.98 2 3 C2.66 3 3.32 3 4 3 C4 3.99 4 4.98 4 6 C3.360625 6.12375 2.72125 6.2475 2.0625 6.375 C1.0415625 6.684375 1.0415625 6.684375 0 7 C-0.33 7.66 -0.66 8.32 -1 9 C-0.67 6.03 -0.34 3.06 0 0 Z " fill="#2C5574" transform="translate(404,223)"/>
<path d="M0 0 C3.3 0.99 6.6 1.98 10 3 C6 5 6 5 4 5 C4 4.01 4 3.02 4 2 C2.35 2 0.7 2 -1 2 C-0.67 1.34 -0.34 0.68 0 0 Z " fill="#3E5B76" transform="translate(188,77)"/>
<path d="M0 0 C2.83022097 3.99560608 1.76210446 7.42737323 1 12 C0.34 12 -0.32 12 -1 12 C-1.08159574 7.83861737 -0.98248524 4.0527516 0 0 Z " fill="#548497" transform="translate(203,350)"/>
<path d="M0 0 C1.2065625 0.0309375 1.2065625 0.0309375 2.4375 0.0625 C3.0975 1.3825 3.7575 2.7025 4.4375 4.0625 C-1.3125 3.3125 -1.3125 3.3125 -3.5625 1.0625 C-2.5625 0.0625 -2.5625 0.0625 0 0 Z " fill="#184866" transform="translate(142.5625,353.9375)"/>
<path d="M0 0 C0.66 0 1.32 0 2 0 C2 1.32 2 2.64 2 4 C1.01 4.66 0.02 5.32 -1 6 C-1.99 5.67 -2.98 5.34 -4 5 C-2.71937515 3.2925002 -1.38232443 1.62626404 0 0 Z " fill="#3A5E79" transform="translate(226,281)"/>
<path d="M0 0 C-0.33 1.32 -0.66 2.64 -1 4 C-2.65 4.33 -4.3 4.66 -6 5 C-6.33 4.34 -6.66 3.68 -7 3 C-3.375 0 -3.375 0 0 0 Z " fill="#4C677E" transform="translate(252,254)"/>
<path d="M0 0 C0.99 0 1.98 0 3 0 C3 0.66 3 1.32 3 2 C3.66 2 4.32 2 5 2 C5 2.66 5 3.32 5 4 C3.35 4.33 1.7 4.66 0 5 C0 3.35 0 1.7 0 0 Z " fill="#0F3858" transform="translate(194,157)"/>
<path d="M0 0 C0 2 0 4 0 6 C-1.98 6.66 -3.96 7.32 -6 8 C-6 7.34 -6 6.68 -6 6 C-5.34 6 -4.68 6 -4 6 C-3.71125 5.38125 -3.4225 4.7625 -3.125 4.125 C-2 2 -2 2 0 0 Z " fill="#708496" transform="translate(342,376)"/>
<path d="M0 0 C0.66 0 1.32 0 2 0 C1.67 3.3 1.34 6.6 1 10 C-1.17766075 5.64467851 -1.03039555 4.53374042 0 0 Z " fill="#0F3451" transform="translate(293,321)"/>
<path d="M0 0 C0.66 0 1.32 0 2 0 C2.33 0.99 2.66 1.98 3 3 C2.54625 3.433125 2.0925 3.86625 1.625 4.3125 C-0.20024334 6.10798342 -0.20024334 6.10798342 -2 9 C-1.125 2.25 -1.125 2.25 0 0 Z " fill="#657F96" transform="translate(210,309)"/>
<path d="M0 0 C0.99 0 1.98 0 3 0 C3.625 2.375 3.625 2.375 4 5 C3.34 5.66 2.68 6.32 2 7 C1.67 6.01 1.34 5.02 1 4 C0.34 4 -0.32 4 -1 4 C-0.67 2.68 -0.34 1.36 0 0 Z " fill="#3D5F7D" transform="translate(227,305)"/>
<path d="M0 0 C2.00720923 0.28674418 4.0085944 0.61866701 6 1 C6 1.66 6 2.32 6 3 C3.36 3.33 0.72 3.66 -2 4 C-1 1 -1 1 0 0 Z " fill="#08335B" transform="translate(275,293)"/>
<path d="M0 0 C1.74627478 2.61941217 2.38722388 4.03824877 3 7 C1.68 7.33 0.36 7.66 -1 8 C-0.67 6.35 -0.34 4.7 0 3 C-0.66 2.67 -1.32 2.34 -2 2 C-1.34 1.34 -0.68 0.68 0 0 Z " fill="#073657" transform="translate(403,288)"/>
<path d="M0 0 C0.99 0 1.98 0 3 0 C2.67 2.31 2.34 4.62 2 7 C1.34 6.67 0.68 6.34 0 6 C0 4.02 0 2.04 0 0 Z " fill="#203F57" transform="translate(325,228)"/>
<path d="M0 0 C0.99 0.33 1.98 0.66 3 1 C3.5625 2.9375 3.5625 2.9375 4 5 C4.66 5.66 5.32 6.32 6 7 C4.35 7 2.7 7 1 7 C0 2.25 0 2.25 0 0 Z " fill="#063459" transform="translate(239,198)"/>
<path d="M0 0 C0.99 0 1.98 0 3 0 C2.67 3.3 2.34 6.6 2 10 C1.67 10 1.34 10 1 10 C0.67 6.7 0.34 3.4 0 0 Z " fill="#718CA1" transform="translate(198,189)"/>
<path d="M0 0 C1.32 0.99 2.64 1.98 4 3 C3.67 3.99 3.34 4.98 3 6 C1.02 5.01 -0.96 4.02 -3 3 C-2.01 2.01 -1.02 1.02 0 0 Z " fill="#40607B" transform="translate(268,156)"/>
<path d="M0 0 C1.32 0 2.64 0 4 0 C3.34 1.32 2.68 2.64 2 4 C1.01 4 0.02 4 -1 4 C-0.67 2.68 -0.34 1.36 0 0 Z " fill="#355475" transform="translate(347,397)"/>
<path d="M0 0 C0.33 0.99 0.66 1.98 1 3 C1.66 3 2.32 3 3 3 C3 4.98 3 6.96 3 9 C0.86928411 6.40608501 -0.53582673 4.36525621 -1 1 C-0.67 0.67 -0.34 0.34 0 0 Z " fill="#2E556F" transform="translate(110,337)"/>
<path d="M0 0 C1.231394 3.69418201 0.64432764 6.2056261 0 10 C-0.66 10 -1.32 10 -2 10 C-3.39195915 5.82412255 -1.82323219 3.86525224 0 0 Z " fill="#395A76" transform="translate(191,274)"/>
<path d="M0 0 C-0.33 1.32 -0.66 2.64 -1 4 C-2.65 4 -4.3 4 -6 4 C-6 3.34 -6 2.68 -6 2 C-2.25 0 -2.25 0 0 0 Z " fill="#395A73" transform="translate(292,252)"/>
<path d="M0 0 C0.33 0.66 0.66 1.32 1 2 C-0.8125 3.5625 -0.8125 3.5625 -3 5 C-3.99 4.67 -4.98 4.34 -6 4 C-5.67 3.01 -5.34 2.02 -5 1 C-3.35 0.67 -1.7 0.34 0 0 Z " fill="#133E62" transform="translate(250,252)"/>
<path d="M0 0 C1.65 0 3.3 0 5 0 C4.67 1.65 4.34 3.3 4 5 C2.68 4.67 1.36 4.34 0 4 C0 2.68 0 1.36 0 0 Z " fill="#1D4A6F" transform="translate(291,251)"/>
<path d="M0 0 C0.66 0 1.32 0 2 0 C1.67 2.97 1.34 5.94 1 9 C-1.14809171 5.77786243 -1.29386153 4.72224599 -1 1 C-0.67 0.67 -0.34 0.34 0 0 Z " fill="#3A558D" transform="translate(218,246)"/>
<path d="M0 0 C0.66 0.33 1.32 0.66 2 1 C1.34 2.65 0.68 4.3 0 6 C-0.99 6 -1.98 6 -3 6 C-1.125 1.125 -1.125 1.125 0 0 Z M2 2 C4 3 4 3 4 3 Z " fill="#57738F" transform="translate(298,244)"/>
<path d="M0 0 C0.33 0 0.66 0 1 0 C1.125 3.375 1.125 3.375 1 7 C0.34 7.66 -0.32 8.32 -1 9 C-1.99 8.67 -2.98 8.34 -4 8 C-3.2884375 7.13375 -3.2884375 7.13375 -2.5625 6.25 C-1.0515133 4.07417916 -0.45963849 2.57397552 0 0 Z " fill="#356A7E" transform="translate(275,175)"/>
<path d="M0 0 C0.99 0.33 1.98 0.66 3 1 C2.67 3.64 2.34 6.28 2 9 C0.14223235 5.86501708 -0.20140476 3.62528568 0 0 Z " fill="#536E86" transform="translate(196,169)"/>
<path d="M0 0 C1.98 0 3.96 0 6 0 C4 3 4 3 1.375 3.6875 C0.199375 3.8421875 0.199375 3.8421875 -1 4 C-0.67 2.68 -0.34 1.36 0 0 Z " fill="#3C667B" transform="translate(214,154)"/>
<path d="M0 0 C6.75 0.75 6.75 0.75 9 3 C6.03 2.67 3.06 2.34 0 2 C0 1.34 0 0.68 0 0 Z " fill="#4D7089" transform="translate(207,86)"/>
</svg>
